<?xml version="1.0" encoding="UTF-8" ?>
<!DOCTYPE svg PUBLIC "-//W3C//DTD SVG 1.1//EN" "http://www.w3.org/Graphics/SVG/1.1/DTD/svg11.dtd">
<svg width="91pt" height="90pt" viewBox="0 0 91 90" version="1.1" xmlns="http://www.w3.org/2000/svg">
<defs data-v-423bf9ae="">
    <linearGradient data-v-423bf9ae="" gradientTransform="rotate(25)" id="ed3e3184-434e-4045-8be5-5d9ac6150068" x1="0%" y1="0%" x2="100%" y2="0%">
        <stop data-v-423bf9ae="" offset="0%" style="stop-color: rgb(0, 0, 0); stop-opacity: 1;"></stop>
        <stop data-v-423bf9ae="" offset="100%" style="stop-color: rgb(180, 180, 180); stop-opacity: 1;"></stop>
    </linearGradient>
</defs>
<g id="#ffffffff">
<path fill="#ffffff" opacity="0.00" d=" M 0.00 0.00 L 91.00 0.00 L 91.00 90.00 L 0.00 90.00 L 0.00 0.00 M 25.19 5.87 C 19.22 14.37 13.38 22.97 7.27 31.37 C 6.77 32.28 5.61 33.34 6.47 34.42 C 11.99 44.64 17.97 54.60 23.47 64.83 L 24.15 65.33 C 30.03 65.49 35.91 65.30 41.79 65.40 C 43.70 62.28 45.64 59.18 47.38 55.96 C 41.68 55.73 35.97 56.07 30.27 55.81 C 28.78 54.89 28.21 53.09 27.33 51.67 C 23.88 45.68 20.54 39.63 17.09 33.65 C 21.90 26.89 26.40 19.93 31.28 13.23 C 42.97 13.25 54.67 13.40 66.35 13.16 C 64.23 10.71 62.11 8.23 59.69 6.07 C 48.23 5.51 36.68 5.93 25.19 5.87 M 34.13 28.99 C 32.26 31.40 30.80 34.08 29.72 36.93 C 40.76 37.19 51.80 36.92 62.84 37.04 C 54.19 50.99 45.61 64.99 36.92 78.91 C 36.12 80.27 35.44 81.69 34.78 83.12 C 50.84 83.53 66.94 83.43 83.01 83.18 C 83.12 80.45 83.11 77.72 83.00 75.00 C 72.40 74.73 61.79 75.00 51.19 74.90 C 58.67 62.81 66.25 50.79 73.73 38.71 C 75.69 35.52 77.93 32.49 79.40 29.04 C 64.31 28.89 49.22 28.97 34.13 28.99 Z" />
</g>
<g id="#030303ff">
<path fill="url(#ed3e3184-434e-4045-8be5-5d9ac6150068)" opacity="1.00" d=" M 25.19 5.87 C 36.68 5.93 48.23 5.51 59.69 6.07 C 62.11 8.23 64.23 10.71 66.35 13.16 C 54.67 13.40 42.97 13.25 31.28 13.23 C 26.40 19.93 21.90 26.89 17.09 33.65 C 20.54 39.63 23.88 45.68 27.33 51.67 C 28.21 53.09 28.78 54.89 30.27 55.81 C 35.97 56.07 41.68 55.73 47.38 55.96 C 45.64 59.18 43.70 62.28 41.79 65.40 C 35.91 65.30 30.03 65.49 24.15 65.33 L 23.47 64.83 C 17.97 54.60 11.99 44.64 6.47 34.42 C 5.61 33.34 6.77 32.28 7.27 31.37 C 13.38 22.97 19.22 14.37 25.19 5.87 Z" />
</g>
<g id="#a3a3a3ff">
<path fill="url(#ed3e3184-434e-4045-8be5-5d9ac6150068)" opacity="1.00" d=" M 34.13 28.99 C 49.22 28.97 64.31 28.89 79.40 29.04 C 77.93 32.49 75.69 35.52 73.73 38.71 C 66.25 50.79 58.67 62.81 51.19 74.90 C 61.79 75.00 72.40 74.73 83.00 75.00 C 83.11 77.72 83.12 80.45 83.01 83.18 C 66.94 83.43 50.84 83.53 34.78 83.12 C 35.44 81.69 36.12 80.27 36.92 78.91 C 45.61 64.99 54.19 50.99 62.84 37.04 C 51.80 36.92 40.76 37.19 29.72 36.93 C 30.80 34.08 32.26 31.40 34.13 28.99 Z" />
</g>
</svg>
